<svg xmlns="http://www.w3.org/2000/svg" viewBox="0 0 134.75 106.43"><defs><style>.cls-1{fill:#8f491c;}.cls-2{fill:none;stroke:#8f491c;stroke-miterlimit:10;}</style></defs><g id="Calque_2" data-name="Calque 2"><g id="Calque_9" data-name="Calque 9"><path class="cls-1" d="M88.18,79.45c0-1.8,0-3.61,0-5.42,0-1,.35-1.77,1.36-1.91,5.11-.75,10.12-2.22,15.33-2.17a12,12,0,0,1,7.22,2.45A9.35,9.35,0,0,1,116,80.05c.13,4.11.29,3.56,3.62,3q3.84-.6,7.65-1.29c2.39-.44,3.07-1.26,3.12-3.66,0-.91,0-1.81,0-2.72,0-.67.28-1.13,1.08-1.15a1,1,0,0,1,1.16,1.07,53.39,53.39,0,0,1,0,6.45c-.2,2,.27,4,0,6-.56,4.4-3.13,7.07-7.17,8.43A55.31,55.31,0,0,1,117,98c-10.4,1.8-20.8,3.54-31.2,5.31-2.35.4-2.74.1-2.74-2.3,0-3.11,0-6.21,0-9.31,0-2,.23-2.31,2.18-2.65l26.6-4.57a6.68,6.68,0,0,0,.89-.18c.43-.12.83-.32.76-.87s-.51-.66-1-.67a24.75,24.75,0,0,0-5,.67c-5.6,1-11.19,2-16.8,2.92-2.24.38-2.57.08-2.58-2.19V79.45Z"/><path class="cls-1" d="M2.13,78.79V61.49a7.07,7.07,0,0,1,0-1c.12-.76-.66-1.78.32-2.25a5,5,0,0,1,3.42-.28c.85.23,1.06.93,1,1.72a7.51,7.51,0,0,1-.83,2.7,23.1,23.1,0,0,0-1.75,8.8c0,3.79,0,7.58,0,11.36,0,1,.29,1.59,1.44,1.29,4.8-1.24,9.74-1.76,14.59-2.72,2.55-.5,3.41-1.54,3.49-4.16,0-.73,0-1.46,0-2.19s.26-1.32,1.08-1.32,1.11.57,1.12,1.3q0,3.36,0,6.71c0,1.68.22,2,1.87,1.68,5.95-1,11.91-1.87,17.8-3.16,1.85-.41,2.39-1.19,2.42-3.11,0-1.08,0-2.15,0-3.23a1,1,0,0,1,1-1,1,1,0,0,1,1.16,1.07c.12,4.17.55,8.33,0,12.5-.67,4.84-3.12,7.65-7.89,8.73-5.38,1.21-10.83,2.05-16.28,2.83-2.5.36-3.55-.45-4.2-2.91-.4-1.54-.41-1.55-1.65-.64a9.93,9.93,0,0,1-3.63,1.64c-4.1,1-8.21,2-12.37,2.65-.3,0-.61,0-.9.1-1.06.22-1.35-.26-1.34-1.26,0-4.09,0-8.18,0-12.27Z"/><path class="cls-1" d="M56.7,78.27c0-6,0-12,0-18.08,0-2,.43-2.39,2.46-2.32,2.88.11,3,.3,2,3S59.94,66.37,58.83,69a5.82,5.82,0,0,0,0,2c0,3.74-.11,7.49-.14,11.23,0,1.51.32,1.81,1.76,1.56,3.65-.64,7.3-1.27,10.93-2,2.73-.54,3.71-1.82,3.68-4.59,0-.6,0-1.2,0-1.8,0-.81.35-1.2,1.17-1.18s1,.47,1,1.17c0,2,0,4,0,6s.09,3.7,0,5.54c-.21,4.4-2.64,7.24-6.53,9-2.88,1.28-6,1.52-9,2-1,.17-2,.36-3.06.49-1.55.19-2-.16-2-1.72Q56.7,87.51,56.7,78.27Z"/><path class="cls-1" d="M134.74,102.54c-.32,1.27-1.66,2.07-2.86,2.92-.86.61-1.52-.2-2.16-.65-1.73-1.23-2.12-1.19-3.52.41-1.19,1.36-2.16,1.49-3.72.5a2.8,2.8,0,0,1-.63-.43c-.55-.62-2.41-.48-1.52-1.91,1.49-2.4,2.08-3.49,4.28-2.38.46.23.92.48,1.39.67,1.42.58,1.87.43,2.65-.85,1-1.58,1.7-1.76,3.28-.88.6.33,1.26.56,1.86.88A1.52,1.52,0,0,1,134.74,102.54Z"/><path class="cls-1" d="M53.35,65.47c0,.88-1.82,3.26-2.67,3.46A2,2,0,0,1,49,68.37c-2-1.34-2.69-1.27-4.21.58a1.92,1.92,0,0,1-2.74.5,23.89,23.89,0,0,0-2.95-1.58c-.5-.2-.7-.47-.25-1,.71-.75,1.38-1.54,2.09-2.29a2,2,0,0,1,2.9-.27c2.29,1.47,2.69,1.39,4.24-.85A1.33,1.33,0,0,1,50,62.94c.85.42,1.69.85,2.52,1.31A1.46,1.46,0,0,1,53.35,65.47Z"/><path class="cls-1" d="M75.5,105.42a5.87,5.87,0,0,1-2.07-.94c-1.53-.88-2.12-.76-3.15.65s-1.61,1.62-3.25.77a3.06,3.06,0,0,1-.56-.31c-.76-.58-2.16-.78-2.08-1.9.1-1.31,1.22-2.23,2.29-3a2,2,0,0,1,2.49.36c1.76,1.36,2.46,1.26,3.83-.51,1-1.35,1.59-1.46,3-.62.9.51,1.8,1,2.69,1.53.32.18.88.37.46.82-1,1-2,2-3,2.93C76,105.39,75.66,105.38,75.5,105.42Z"/><path class="cls-1" d="M27.88,67.24a13.11,13.11,0,0,1-2.75,3.22c-.86.57-1.54.07-2.25-.35S21.64,69.35,21,69c-1.09-.53-1.07-1.24-.38-2s1.41-1.5,2.13-2.23a.88.88,0,0,1,1.07-.21c1.24.68,2.45,1.4,3.66,2.13C27.63,66.78,27.71,67,27.88,67.24Z"/><path class="cls-1" d="M69.64,70.08c0-.34-.16-.84.21-1s.61.33.89.54c.94.7,1.39.14,1.8-.63.17-.33.24-.85.68-.86s.38.5.48.8a.67.67,0,0,0,.81.49,1,1,0,0,0,.87-.81c.14-.55-.13-1.59.88-1.35s.57,1.2.47,1.88a2.58,2.58,0,0,1-1.91,2.21,16.16,16.16,0,0,1-3.3.56C69.88,72,69.63,71.75,69.64,70.08Z"/></g><g id="Calque_5" data-name="Calque 5"><g id="Calque_6" data-name="Calque 6"><path class="cls-2" d="M86.62,4.88s10.8,1.39,12.57,1.27,7.64.31,9.13.86S127,18.08,127,18.08s4.35,2.14,2.78,5.33-9.89-.15-9.89-.15L111,17.88"/></g><path class="cls-2" d="M111,17.88c5.77,4.69,10.75,7.79,16.52,12.48,4.42,2.63,6.63,5.89,5.85,7.72-.7,1.64-3.7,1.86-4.09,1.89a8.46,8.46,0,0,1-6.5-2.81l-7-5.36"/><g id="Calque_3" data-name="Calque 3"><path class="cls-2" d="M70.14,25.08s-3.93-.69-10.55,2.17-17.84,4.57-22.38,4.54-10.56-2.85-14.07-2.14-8,6.2-11.27,6.09-6.24-1.38-6.68-3.05,1-4.08,4.61-3.81,1.88,8.81-.36,9.29-8.21-1.71-8.89-7,5.29-8.3,12.34-9.41,27.4,12.5,32.37,14.09,12.79,2.37,17.11,4,17.55,10.59,20.9,12.27,6.31,2.22,7.42-.49,1.27-5.31-.49-7.46S75.78,31.84,72.79,30.74s-7-1-7.92-.12c-1.7,1.63,0,5.45,2.8,5.48,2.28,0,11.08-13.21,10.93-15.47s-1.91-4.45-4.09-3-1.74,3.06-.71,4,15.23,0,18.54,1S106.54,38.05,109,39.71c3.9,2.64,6.36-1.42,4-5.31,0,0-10.41-17.95-13.81-20.31S81,8.16,81,8.16"/></g><g id="Calque_2-2" data-name="Calque 2"><path class="cls-2" d="M9.78,4.12S55.21,5,60,4,73.21.41,76.78.5,87.34,5.8,92.33,7.74s13.55,4,16.24,5.41,2.14,4.86,3.41,10,4.66,9.25,4.81,11.51,1.78,12.19,2.51,13.44-4.26,4.17-7.57-1.77-2.72-6.6-2.72-6.6"/></g></g></g></svg>