<svg xmlns="http://www.w3.org/2000/svg" viewBox="0 0 133.55 103.44"><defs><style>.cls-1{fill:#f7f3e2;}.cls-2{fill:none;stroke:#f7f3e2;stroke-miterlimit:10;}</style></defs><g id="Calque_2" data-name="Calque 2"><g id="Calque_5" data-name="Calque 5"><g id="Calque_3" data-name="Calque 3"><path class="cls-1" d="M86.22,76.46c0-1.81,0-3.62,0-5.42,0-1,.35-1.77,1.36-1.92,5.11-.74,10.11-2.21,15.33-2.17a12.16,12.16,0,0,1,7.22,2.45A9.38,9.38,0,0,1,114,77.06c.13,4.11.29,3.56,3.62,3,2.56-.4,5.1-.83,7.65-1.3,2.39-.43,3.07-1.26,3.12-3.66,0-.9,0-1.8,0-2.71,0-.68.27-1.13,1.08-1.15a1,1,0,0,1,1.16,1.06,53.4,53.4,0,0,1,0,6.45c-.2,2,.27,4,0,6.06-.56,4.4-3.13,7.06-7.17,8.43A56.54,56.54,0,0,1,115.05,95c-10.4,1.8-20.8,3.53-31.2,5.31-2.35.4-2.74.09-2.74-2.31,0-3.1,0-6.2,0-9.3,0-2,.23-2.31,2.18-2.65l26.6-4.57a8.06,8.06,0,0,0,.88-.18c.44-.13.84-.32.77-.88s-.51-.65-1-.66a24.74,24.74,0,0,0-5,.66c-5.6,1-11.19,2-16.8,2.93-2.24.38-2.58.07-2.58-2.2V76.46Z"/><path class="cls-1" d="M.17,75.8V58.5a7.05,7.05,0,0,1,0-1c.12-.76-.66-1.78.32-2.25a4.93,4.93,0,0,1,3.41-.28c.86.23,1.07.92,1,1.72a7.57,7.57,0,0,1-.83,2.7,22.88,22.88,0,0,0-1.75,8.8c0,3.78,0,7.57,0,11.36,0,1,.29,1.59,1.44,1.29,4.8-1.24,9.74-1.76,14.59-2.72,2.55-.5,3.41-1.54,3.49-4.16,0-.73,0-1.47,0-2.2s.26-1.31,1.08-1.31,1.11.57,1.12,1.3q0,3.34,0,6.71c0,1.68.22,1.95,1.87,1.68,6-1,11.91-1.88,17.8-3.17,1.85-.4,2.39-1.18,2.42-3.1,0-1.08,0-2.16,0-3.23a1,1,0,0,1,1-1.06,1,1,0,0,1,1.16,1.07c.12,4.17.55,8.34,0,12.51-.66,4.84-3.11,7.65-7.88,8.72-5.38,1.21-10.83,2.06-16.28,2.84-2.5.36-3.55-.45-4.2-2.92-.4-1.53-.41-1.54-1.65-.63a10.1,10.1,0,0,1-3.63,1.64c-4.1,1-8.21,2-12.37,2.65-.3,0-.61,0-.9.1C.44,95.74.15,95.27.16,94.27c0-4.09,0-8.18,0-12.27Z"/><path class="cls-1" d="M54.74,75.28q0-9,0-18.09c0-2,.43-2.39,2.46-2.31,2.88.11,3,.29,2,3S58,63.38,56.87,66a6.11,6.11,0,0,0,0,2c0,3.74-.1,7.49-.13,11.23,0,1.51.32,1.8,1.76,1.55,3.65-.63,7.3-1.26,10.93-2,2.73-.54,3.71-1.83,3.68-4.59,0-.6,0-1.2,0-1.81,0-.81.35-1.19,1.17-1.17s1,.47,1,1.17c0,2,0,4,0,5.94s.09,3.7,0,5.55c-.21,4.39-2.64,7.23-6.53,9-2.88,1.28-6,1.52-9,2-1,.18-2,.37-3.06.5-1.55.19-2-.16-2-1.72Q54.74,84.52,54.74,75.28Z"/><path class="cls-1" d="M132.78,99.55c-.32,1.26-1.66,2.06-2.86,2.92-.86.61-1.52-.2-2.16-.66-1.73-1.22-2.12-1.19-3.52.41-1.19,1.37-2.16,1.5-3.72.51a3.18,3.18,0,0,1-.63-.43c-.55-.63-2.41-.49-1.52-1.92,1.49-2.39,2.08-3.48,4.28-2.37.46.23.92.48,1.39.67,1.42.58,1.87.42,2.65-.86,1-1.57,1.7-1.75,3.28-.87.6.33,1.26.55,1.86.88A1.52,1.52,0,0,1,132.78,99.55Z"/><path class="cls-1" d="M51.39,62.47a6.07,6.07,0,0,1-2.67,3.47,2,2,0,0,1-1.65-.56c-2-1.34-2.69-1.27-4.22.58a1.91,1.91,0,0,1-2.73.5,22.11,22.11,0,0,0-3-1.58c-.49-.2-.7-.48-.24-1,.71-.75,1.38-1.54,2.09-2.29a2.06,2.06,0,0,1,2.9-.26c2.29,1.47,2.69,1.38,4.24-.85A1.32,1.32,0,0,1,48,60c.85.42,1.69.85,2.52,1.31A1.46,1.46,0,0,1,51.39,62.47Z"/><path class="cls-1" d="M73.54,102.42a5.85,5.85,0,0,1-2.07-.93c-1.54-.88-2.12-.76-3.16.65s-1.6,1.62-3.24.77a5,5,0,0,1-.56-.31c-.77-.58-2.16-.78-2.08-1.9.1-1.31,1.22-2.24,2.29-3a2,2,0,0,1,2.49.36c1.76,1.36,2.46,1.26,3.83-.51,1-1.35,1.59-1.46,3-.63l2.69,1.53c.32.19.88.38.46.83-1,1-2,2-3,2.93C74,102.39,73.7,102.38,73.54,102.42Z"/><path class="cls-1" d="M25.92,64.25a12.89,12.89,0,0,1-2.75,3.21c-.86.58-1.54.08-2.25-.34S19.68,66.36,19,66c-1.09-.53-1.07-1.24-.38-2s1.41-1.5,2.13-2.23a.88.88,0,0,1,1.07-.21c1.24.68,2.45,1.4,3.66,2.13C25.67,63.79,25.75,64,25.92,64.25Z"/><path class="cls-1" d="M67.68,67.09c0-.34-.16-.84.2-1s.62.32.9.54c.94.7,1.39.14,1.8-.64.17-.33.24-.84.68-.85s.38.49.48.8a.67.67,0,0,0,.8.49,1,1,0,0,0,.88-.81c.14-.55-.13-1.59.88-1.35s.57,1.2.47,1.88a2.57,2.57,0,0,1-1.91,2.2,15.63,15.63,0,0,1-3.3.57C67.92,69,67.67,68.76,67.68,67.09Z"/><path class="cls-2" d="M90.06,4.51S100,5.78,101.58,5.68a37.41,37.41,0,0,1,8.37.78c1.37.5,17.15,10.15,17.15,10.15s4,2,2.54,4.88-9.06-.14-9.06-.14l-8.17-4.93"/><path class="cls-2" d="M112.41,16.42c5.28,4.3,9.85,7.14,15.13,11.44,4,2.41,6.08,5.4,5.37,7.07-.64,1.51-3.39,1.71-3.75,1.73a7.74,7.74,0,0,1-6-2.57l-6.4-4.91"/><path class="cls-2" d="M75,23s-3.6-.63-9.66,2S49,29.2,44.79,29.18s-9.68-2.62-12.9-2-7.34,5.68-10.32,5.58S15.84,31.52,15.45,30s.94-3.74,4.22-3.49,1.72,8.07-.33,8.5-7.53-1.56-8.14-6.43S16,21,22.5,20,47.61,31.41,52.16,32.87,63.88,35,67.84,36.56,83.92,46.26,87,47.8s5.78,2,6.8-.45,1.17-4.86-.45-6.83-13.22-11.3-16-12.31-6.4-.95-7.26-.12c-1.56,1.51,0,5,2.57,5,2.09,0,10.15-12.1,10-14.17S81,14.87,79,16.21s-1.6,2.8-.65,3.62,14,0,17,1,13,14.12,15.27,15.64c3.58,2.42,5.83-1.3,3.7-4.87,0,0-9.54-16.44-12.65-18.61S84.93,7.52,84.93,7.52"/><path class="cls-2" d="M19.66,3.82s41.62.81,46-.08S77.78.42,81.05.5s9.67,4.86,14.24,6.63,12.42,3.64,14.88,5,2,4.46,3.13,9.14,4.27,8.48,4.41,10.55S119.33,43,120,44.1s-3.9,3.82-6.93-1.62-2.5-6-2.5-6"/></g></g></g></svg>